# AST/ASF file generated using VICON BodyLanguage
# -----------------------------------------------
:version 1.10
:name VICON
:units
  mass 1.0
  length 0.45
  angle deg
:documentation
   .ast/.asf automatically generated from VICON data using
   VICON BodyBuilder and BodyLanguage model FoxedUp or BRILLIANT.MOD
:root
   order TX TY TZ RX RY RZ
   axis XYZ
   position 0 0 0  
   orientation 0 0 0 
:bonedata
  begin
     id 1 
     name lhipjoint
     direction 0.693937 -0.600361 0.397515 
     length 2.37164 
     axis 0 0 0  XYZ
  end
  begin
     id 2 
     name lfemur
     direction 0.34202 -0.939693 0  
     length 6.18497  
     axis 0 0 20  XYZ
    dof rx ry rz
    limits (-160.0 20.0)
           (-70.0 70.0)
           (-60.0 70.0)
  end
  begin
     id 3 
     name ltibia
     direction 0.34202 -0.939693 0   
     length 6.91601   
     axis 0 0 20   XYZ
    dof rx
    limits (-10.0 170.0)
  end
  begin
     id 4 
     name lfoot
     direction 0.0978718 -0.2689 0.958182   
     length 1.81453   
     axis -90 7.62852e-016 20   XYZ
    dof rx rz
    limits (-45.0 90.0)
           (-70.0 20.0)
  end
  begin
     id 5 
     name ltoes
     direction 1.53569e-011 -4.21951e-011 1   
     length 0.912052   
     axis -90 7.62852e-016 20   XYZ
    dof rx
    limits (-90.0 20.0)
  end
  begin
     id 6 
     name rhipjoint
     direction -0.643996 -0.637876 0.422354   
     length 2.23216  
     axis 0 0 0  XYZ 
  end
  begin
     id 7 
     name rfemur
     direction -0.34202 -0.939693 0   
     length 6.15404   
     axis 0 0 -20   XYZ
    dof rx ry rz
    limits (-160.0 20.0)
           (-70.0 70.0)
           (-70.0 60.0)
  end
  begin
     id 8 
     name rtibia
     direction -0.34202 -0.939693 0   
     length 6.86744   
     axis 0 0 -20   XYZ
    dof rx
    limits (-10.0 170.0)
 end
 begin
     id 9 
     name rfoot
     direction -0.118701 -0.326127 0.937844   
     length 1.9243  
     axis -90 -7.62852e-016 -20   XYZ
    dof rx rz
    limits (-45.0 90.0)
           (-20.0 70.0)
  end
  begin
     id 10 
     name rtoes
     direction -1.5356e-011 -4.2181e-011 1   
     length 0.958865   
     axis -90 -7.62852e-016 -20   XYZ
    dof rx
    limits (-90.0 20.0)
  end
  begin
     id 11 
     name lowerback
     direction 0.0310826 0.968686 -0.246334   
     length 2.00021   
     axis 0 0 0   XYZ
    dof rx ry rz
    limits (-20.0 45.0)
           (-30.0 30.0)
           (-30.0 30.0)
  end
  begin
     id 12 
     name upperback
     direction -0.0152834 0.999474 -0.0286152   
     length 2.03728   
     axis 0 0 0   XYZ
    dof rx ry rz
    limits (-20.0 45.0)
           (-30.0 30.0)
           (-30.0 30.0)
  end
  begin
     id 13 
     name thorax
     direction -0.0323701 0.996236 0.0804149   
     length 2.16   
     axis 0 0 0   XYZ
    dof rx ry rz
    limits (-20.0 45.0)
           (-30.0 30.0)
           (-30.0 30.0)
  end
  begin
     id 14 
     name lowerneck
     direction 0.0307935 0.982251 0.185027   
     length 1.43558   
     axis 0 0 0   XYZ
    dof rx ry rz
    limits (-20.0 45.0)
           (-30.0 30.0)
           (-30.0 30.0)
  end
  begin
     id 15 
     name upperneck
     direction -0.0927153 0.994775 0.0427454   
     length 1.44603   
     axis 0 0 0   XYZ
    dof rx ry rz
    limits (-20.0 45.0)
           (-30.0 30.0)
           (-30.0 30.0)
  end
  begin
     id 16
     name head
     direction -0.0341265 0.999406 -0.00472033  
     length 1.45931  
     axis 0 0 0   XYZ
    dof rx ry rz
    limits (-20.0 45.0)
           (-30.0 30.0)
           (-30.0 30.0)
  end
  begin
     id 17 
     name lclavicle
     direction 0.820755 0.555306 -0.134151  
     length 2.66075  
     axis 0 0 0   XYZ
    dof ry rz
    limits (-20.0 10.0)
           (0.0 20.0)
  end
  begin
     id 18 
     name lhumerus
     direction 1 -4.48971e-011 5.24853e-027   
     length 5.0546   
     axis -180 -30 -90   XYZ
    dof rx ry rz
    limits (-60.0 90.0)
           (-90.0 90.0)
           (-90.0 90.0)
  end
  begin
     id 19
     name lradius
     direction 1 -4.48971e-011 2.76575e-028   
     length 3.39013   
     axis -180 -30 -90   XYZ
    dof rx
    limits (-10.0 170.0)
  end
  begin
     id 20
     name lwrist
     direction 1 -4.48939e-011 -2.27826e-027   
     length 1.69507   
     axis 2.17013e-015 90 90   XYZ
    dof ry
    limits (-180.0 0.0)
 end
  begin
     id 21 
     name lhand
     direction 1 -4.49009e-011 -4.55652e-027   
     length 0.572425   
     axis 2.90745e-015 90 90   XYZ
    dof rx rz
    limits (-90.0 90.0)
           (-45.0 45.0)
  end
  begin
     id 22 
     name lfingers
     direction 1 -4.48955e-011 -9.11303e-027   
     length 0.461504   
     axis 5.81489e-015 90 90   XYZ
    dof rx
    limits (0.0 90.0)
  end
  begin
     id 23
     name lthumb
     direction 0.707107 -6.34929e-011 0.707107   
     length 0.66263   
     axis -90 45 2.85299e-015   XYZ
    dof rx rz
    limits (-45.0 45.0)
           (-45.0 45.0)
  end
  begin
     id 24 
     name rclavicle
     direction -0.754477 0.632921 -0.173712   
     length 2.73081  
     axis 0 0 0   XYZ 
    dof ry rz
    limits (-10.0 20.0)
           (-20.0 0.0)
  end
  begin
     id 25 
     name rhumerus
     direction -1 -4.48969e-011 5.1496e-027  
     length 5.0701   
     axis -180 30 90   XYZ
    dof rx ry rz
    limits (-90.0 60.0)
           (-90.0 90.0)
           (-90.0 90.0)
  end
  begin
     id 26 
     name rradius
     direction -1 -4.48967e-011 -7.15624e-028   
     length 3.14957   
     axis -180 30 90   XYZ
    dof rx
    limits (-10.0 170.0)
  end
  begin
     id 27 
     name rwrist
     direction -1 -4.48938e-011 -2.27826e-027   
     length 1.57479   
     axis 2.17013e-015 -90 -90   XYZ
    dof ry
    limits (-180.0 0.0)
  end
  begin
     id 28
     name rhand
     direction -1 -4.49008e-011 -4.55652e-027   
     length 0.718191   
     axis 2.90745e-015 -90 -90   XYZ
    dof rx rz
    limits (-90.0 90.0)
           (-45.0 45.0)
  end
  begin
     id 29
     name rfingers
     direction -1 -4.48953e-011 -9.11303e-027   
     length 0.579024   
     axis 5.81489e-015 -90 -90   XYZ
    dof rx
    limits (0.0 90.0)
  end
  begin
     id 30
     name rthumb
     direction -0.707107 -6.34937e-011 0.707107   
     length 0.831366   
     axis -90 -45 -2.85299e-015   XYZ
    dof rx rz
    limits (-45.0 45.0)
           (-45.0 45.0)
  end
:hierarchy
  begin
    root lhipjoint rhipjoint lowerback
    lhipjoint lfemur
    lfemur ltibia
    ltibia lfoot
    lfoot ltoes
    rhipjoint rfemur
    rfemur rtibia
    rtibia rfoot
    rfoot rtoes
    lowerback upperback
    upperback thorax
    thorax lowerneck lclavicle rclavicle
    lowerneck upperneck
    upperneck head
    lclavicle lhumerus
    lhumerus lradius
    lradius lwrist
    lwrist lhand lthumb
    lhand lfingers
    rclavicle rhumerus
    rhumerus rradius
    rradius rwrist
    rwrist rhand rthumb
    rhand rfingers
  end

#!OML:ASF H:\Male1\Project 1\Capture day 1\Session 1\Male1.ASF
:FULLY-SPECIFIED
:DEGREES
136
root 7.01924 15.6413 0.706039 366.469 -98.9116 -363.71
lowerback 9.74664 1.73015 -8.09199
upperback 5.97362 1.1755 -5.10379
thorax 0.719722 0.274237 -0.886596
lowerneck -4.03353 4.96678 6.95661
upperneck 12.5773 5.56879 2.26318
head 4.58892 3.08009 -0.145462
rclavicle -1.66979e-014 -6.36111e-015
rhumerus -38.3687 -1.26258 -90.6759
rradius 34.3037
rwrist -20.3414
rhand -13.2657 2.49341
rfingers 7.12502
rthumb 12.837 -27.0919
lclavicle -1.66979e-014 -6.36111e-015
lhumerus -18.8473 2.80144 75.1335
lradius 26.3594
lwrist -5.80361
lhand -20.029 15.6432
lfingers 7.12502
lthumb 6.31186 45.5291
rfemur -19.476 4.65386 20.9967
rtibia 87.5943
rfoot -12.6011 -18.7548
rtoes -26.7396
lfemur -12.8481 -6.21706 -25.0113
ltibia 21.4886
lfoot -14.6568 13.7981
ltoes -14.9369
137
root 6.74206 15.6404 0.721611 368.36 -98.6795 -366.008
lowerback 9.89412 1.57123 -8.40872
upperback 6.14113 0.927642 -5.01105
thorax 0.822651 0.131031 -0.594747
lowerneck -3.99104 5.02849 7.1798
upperneck 12.7039 5.66482 1.97097
head 4.63872 3.12352 -0.263628
rclavicle 4.77083e-015 -9.85972e-014
rhumerus -38.3995 -1.43877 -90.3741
rradius 34.161
rwrist -20.0369
rhand -13.5894 2.37827
rfingers 7.12502
rthumb 12.525 -27.2263
lclavicle 4.77083e-015 -9.85972e-014
lhumerus -18.5439 1.70856 75.6467
lradius 27.4952
lwrist -4.2286
lhand -20.6112 15.4186
lfingers 7.12502
lthumb 5.74978 45.3206
rfemur -22.6411 5.44777 20.946
rtibia 89.4995
rfoot -13.0838 -18.1167
rtoes -27.7773
lfemur -10.9514 -6.55446 -25.8206
ltibia 20.8721
lfoot -15.1589 13.9723
ltoes -13.643
138
root 6.46231 15.6288 0.736575 370.668 -98.4169 -368.716
lowerback 10.0025 1.40601 -8.72258
upperback 6.29114 0.675739 -4.93402
thorax 0.933246 -0.0140546 -0.320081
lowerneck -3.95824 5.06248 7.35182
upperneck 12.8449 5.71911 1.74074
head 4.69049 3.14761 -0.356855
rclavicle 9.54166e-015 -1.11319e-014
rhumerus -38.4285 -1.68786 -90.0703
rradius 33.9536
rwrist -19.7022
rhand -13.881 2.26107
rfingers 7.12502
rthumb 12.2438 -27.3605
lclavicle 9.54166e-015 -1.11319e-014
lhumerus -18.378 0.428108 76.1719
lradius 28.8506
lwrist -2.47138
lhand -21.2162 15.1467
lfingers 7.12502
lthumb 5.16563 45.0637
rfemur -25.6634 6.19586 20.832
rtibia 90.5407
rfoot -13.5626 -17.5124
rtoes -28.9891
lfemur -9.21368 -6.78958 -26.6827
ltibia 20.5484
lfoot -15.6961 14.0258
ltoes -12.304
139
root 6.18046 15.6068 0.750334 373.17 -98.149 -371.601
lowerback 10.0827 1.25114 -9.00429
upperback 6.41952 0.443165 -4.86762
thorax 1.03923 -0.147856 -0.0759408
lowerneck -3.97049 5.06788 7.44517
upperneck 13.0298 5.72378 1.60846
head 4.75675 3.14985 -0.408992
rclavicle 2.14687e-014 6.36111e-014
rhumerus -38.4512 -2.00232 -89.7721
rradius 33.683
rwrist -19.3823
rhand -14.1122 2.16197
rfingers 7.12502
rthumb 12.021 -27.4728
lclavicle 2.14687e-014 6.36111e-014
lhumerus -18.3083 -0.990565 76.6945
lradius 30.3639
lwrist -0.702949
lhand -21.7458 14.9069
lfingers 7.12502
lthumb 4.65424 44.8358
rfemur -28.5 6.89712 20.7049
rtibia 90.7054
rfoot -14.0449 -17.0613
rtoes -29.9698
lfemur -7.6668 -6.88514 -27.5457
ltibia 20.5445
lfoot -16.247 14.0035
ltoes -11.1358
140
root 5.89671 15.5757 0.762539 375.642 -97.8892 -374.427
lowerback 10.1325 1.11686 -9.23355
upperback 6.52762 0.246218 -4.80374
thorax 1.14077 -0.261455 0.133455
lowerneck -4.04792 5.04721 7.46098
upperneck 13.266 5.67988 1.57442
head 4.84318 3.13113 -0.419451
rclavicle -1.90833e-014 -1.43125e-014
rhumerus -38.4596 -2.34526 -89.4922
rradius 33.3539
rwrist -19.1026
rhand -14.2826 2.08173
rfingers 7.12502
rthumb 11.8567 -27.5626
lclavicle -1.90833e-014 -1.43125e-014
lhumerus -18.2893 -2.4777 77.2069
lradius 31.9853
lwrist 0.942632
lhand -22.1235 14.8059
lfingers 7.12502
lthumb 4.28952 44.7424
rfemur -31.0961 7.54939 20.6124
rtibia 89.99
rfoot -14.5697 -16.8216
rtoes -30.5514
lfemur -6.33987 -6.82134 -28.3656
ltibia 20.8889
lfoot -16.8138 13.9556
ltoes -10.3192
141
root 5.61052 15.5364 0.773032 377.964 -97.6406 -377.081
lowerback 10.1691 1.01274 -9.4045
upperback 6.61069 0.0954721 -4.7406
thorax 1.2213 -0.348507 0.305887
lowerneck -4.17878 4.99986 7.43371
upperneck 13.5554 5.58857 1.60372
head 4.95072 3.09178 -0.404614
rclavicle -2.54444e-014 -4.77083e-014
rhumerus -38.4745 -2.71743 -89.2339
rradius 32.9751
rwrist -18.8393
rhand -14.3889 2.01937
rfingers 7.12502
rthumb 11.7541 -27.6308
lclavicle -2.54444e-014 -4.77083e-014
lhumerus -18.3069 -3.97887 77.7037
lradius 33.6612
lwrist 2.36678
lhand -22.3472 14.8698
lfingers 7.12502
lthumb 4.07352 44.8106
rfemur -33.3633 8.14977 20.5788
rtibia 88.37
rfoot -15.0459 -16.8621
rtoes -30.9946
lfemur -5.20074 -6.59906 -29.1219
ltibia 21.5489
lfoot -17.413 13.9083
ltoes -9.92251
142
root 5.32188 15.4912 0.781697 379.79 -97.3903 -379.205
lowerback 10.1909 0.936952 -9.48889
upperback 6.66942 -0.0077406 -4.66204
thorax 1.28067 -0.407128 0.442871
lowerneck -4.3378 4.92524 7.40283
upperneck 13.8778 5.45545 1.64349
head 5.07195 3.03319 -0.387655
rclavicle -2.22639e-014 -2.8625e-014
rhumerus -38.499 -3.11853 -88.997
rradius 32.5629
rwrist -18.543
rhand -14.4333 1.95734
rfingers 7.12502
rthumb 11.7113 -27.6953
lclavicle -2.22639e-014 -2.8625e-014
lhumerus -18.345 -5.41664 78.1843
lradius 35.336
lwrist 3.50924
lhand -22.4695 15.0411
lfingers 7.12502
lthumb 3.95541 44.9841
rfemur -35.2374 8.71163 20.6612
rtibia 85.8213
rfoot -15.5475 -17.2118
rtoes -31.1268
lfemur -4.18902 -6.22978 -29.7519
ltibia 22.4036
lfoot -18.0001 13.8612
ltoes -9.93166
143
root 5.02932 15.4446 0.788728 381.091 -97.1204 -380.769
lowerback 10.1712 0.877257 -9.50266
upperback 6.72156 -0.0760074 -4.55815
thorax 1.35263 -0.44588 0.564486
lowerneck -4.48687 4.82584 7.39453
upperneck 14.1833 5.293 1.65082
head 5.18725 2.95938 -0.386943
rclavicle 1.35174e-014 5.08889e-014
rhumerus -38.5156 -3.50839 -88.789
rradius 32.1396
rwrist -18.1837
rhand -14.4342 1.8863
rfingers 7.12502
rthumb 11.7105 -27.7664
lclavicle 1.35174e-014 5.08889e-014
lhumerus -18.378 -6.71779 78.6494
lradius 36.9569
lwrist 4.38463
lhand -22.5378 15.1817
lfingers 7.12502
lthumb 3.88945 45.1259
rfemur -36.6358 9.22795 20.8558
rtibia 82.3205
rfoot -16.0566 -17.8616
rtoes -31.1163
lfemur -3.20391 -5.74572 -30.2399
ltibia 23.281
lfoot -18.4948 13.7803
ltoes -10.1773
144
root 4.73071 15.4027 0.794679 382.044 -96.8121 -381.958
lowerback 10.1137 0.822834 -9.46328
upperback 6.76848 -0.126075 -4.4339
thorax 1.43783 -0.473728 0.676493
lowerneck -4.6022 4.70625 7.40852
upperneck 14.4628 5.10868 1.6317
head 5.2897 2.8739 -0.400952
rclavicle 9.54166e-015 2.8625e-014
rhumerus -38.5388 -3.85966 -88.6161
rradius 31.7271
rwrist -17.7514
rhand -14.3943 1.80717
rfingers 7.12502
rthumb 11.7489 -27.8433
lclavicle 9.54166e-015 2.8625e-014
lhumerus -18.4151 -7.87996 79.1012
lradius 38.4627
lwrist 5.05283
lhand -22.6385 15.0611
lfingers 7.12502
lthumb 3.7922 45.0071
rfemur -37.4658 9.67904 21.1262
rtibia 77.8752
rfoot -16.605 -18.7053
rtoes -30.882
lfemur -2.12771 -5.19401 -30.5961
ltibia 24.0011
lfoot -18.8129 13.6088
ltoes -10.4735
145
root 4.42496 15.3696 0.800177 382.96 -96.4566 -383.082
lowerback 10.0133 0.760398 -9.39583
upperback 6.80783 -0.17764 -4.2977
thorax 1.5384 -0.501196 0.785481
lowerneck -4.68685 4.57654 7.42535
upperneck 14.7316 4.91334 1.60977
head 5.38354 2.7826 -0.418327
rclavicle -3.97569e-016 -1.59028e-015
rhumerus -38.5755 -4.12818 -88.4868
rradius 31.3486
rwrist -17.2629
rhand -14.3217 1.70767
rfingers 7.12502
rthumb 11.8189 -27.9388
lclavicle -3.97569e-016 -1.59028e-015
lhumerus -18.4715 -8.89029 79.5465
lradius 39.8044
lwrist 5.54413
lhand -22.8402 14.5347
lfingers 7.12502
lthumb 3.59743 44.4841
rfemur -37.707 10.0523 21.421
rtibia 72.5663
rfoot -17.408 -19.5589
rtoes -30.4632
lfemur -0.895044 -4.62559 -30.8463
ltibia 24.4426
lfoot -18.8868 13.3111
ltoes -10.8249
146
root 4.11082 15.3439 0.805393 384.764 -96.0816 -385.089
lowerback 9.8616 0.686612 -9.39132
upperback 6.84714 -0.24312 -4.17579
thorax 1.66954 -0.538637 0.914615
lowerneck -4.75072 4.44463 7.43143
upperneck 15.0043 4.71513 1.60011
head 5.47447 2.68991 -0.431236
rclavicle -2.38542e-015 1.74931e-014
rhumerus -38.6265 -4.288 -88.4051
rradius 31.0184
rwrist -16.7452
rhand -14.2269 1.60261
rfingers 7.12502
rthumb 11.9103 -28.0386
lclavicle -2.38542e-015 1.74931e-014
lhumerus -18.5645 -9.749 79.9943
lradius 40.999
lwrist 5.94887
lhand -23.0375 13.813
lfingers 7.12502
lthumb 3.40687 43.7655
rfemur -37.4035 10.3408 21.6225
rtibia 66.5861
rfoot -18.4369 -20.2828
rtoes -29.9588
lfemur 0.551043 -4.08635 -31.1005
ltibia 24.5384
lfoot -18.7043 12.8933
ltoes -11.3498
147
root 3.7894 15.3208 0.809708 387.441 -95.7187 -387.967
lowerback 9.66008 0.610372 -9.44275
upperback 6.88666 -0.310216 -4.06781
thorax 1.82991 -0.579843 1.05919
lowerneck -4.82601 4.31748 7.41916
upperneck 15.3064 4.51861 1.61437
head 5.57577 2.59905 -0.433472
rclavicle -1.07344e-014 -3.65764e-014
rhumerus -38.6817 -4.35731 -88.3642
rradius 30.7334
rwrist -16.2261
rhand -14.1042 1.51232
rfingers 7.12502
rthumb 12.0286 -28.122
lclavicle -1.07344e-014 -3.65764e-014
lhumerus -18.7009 -10.4818 80.447
lradius 42.0345
lwrist 6.31022
lhand -23.1549 13.0244
lfingers 7.12502
lthumb 3.29348 42.9787
rfemur -36.6708 10.6369 21.7373
rtibia 60.2036
rfoot -19.6405 -20.8007
rtoes -29.674
lfemur 2.19845 -3.59197 -31.3512
ltibia 24.3031
lfoot -18.3166 12.3841
ltoes -12.1173
148
root 3.46049 15.2941 0.81346 391.615 -95.4104 -392.368
lowerback 9.41593 0.532315 -9.58212
upperback 6.92785 -0.382038 -3.99501
thorax 2.01827 -0.627763 1.21458
lowerneck -4.93088 4.20292 7.38505
upperneck 15.6593 4.33103 1.6582
head 5.69753 2.5142 -0.421612
rclavicle -6.36111e-015 -1.59028e-015
rhumerus -38.7439 -4.35929 -88.3574
rradius 30.4904
rwrist -15.7434
rhand -13.9476 1.44126
rfingers 7.12502
rthumb 12.1796 -28.1842
lclavicle -6.36111e-015 -1.59028e-015
lhumerus -18.9028 -11.0951 80.9028
lradius 42.9027
lwrist 6.63486
lhand -23.1601 12.2786
lfingers 7.12502
lthumb 3.28847 42.233
rfemur -35.6311 11.03 21.6823
rtibia 53.7675
rfoot -21.0403 -21.1553
rtoes -29.5276
lfemur 4.02809 -3.15925 -31.6713
ltibia 23.8224
lfoot -17.8172 11.8203
ltoes -13.2335
149
root 3.12493 15.2584 0.816852 397.459 -95.1971 -398.483
lowerback 9.15558 0.453044 -9.80097
upperback 6.96403 -0.460434 -3.96673
thorax 2.21334 -0.682183 1.36658
lowerneck -5.06433 4.10474 7.33658
upperneck 16.0752 4.15759 1.72058
head 5.84427 2.43778 -0.399858
rclavicle -1.98785e-014 -1.74931e-014
rhumerus -38.8279 -4.33852 -88.3696
rradius 30.2883
rwrist -15.3174
rhand -13.7589 1.39857
rfingers 7.12502
rthumb 12.3615 -28.216
lclavicle -1.98785e-014 -1.74931e-014
lhumerus -19.2071 -11.592 81.3581
lradius 43.6071
lwrist 6.90234
lhand -23.0562 11.6238
lfingers 7.12502
lthumb 3.38881 41.5766
rfemur -34.4168 11.6735 21.4065
rtibia 47.6618
rfoot -22.6198 -21.4607
rtoes -29.3096
lfemur 5.9933 -2.79389 -32.0846
ltibia 23.2308
lfoot -17.3064 11.2282
ltoes -14.7372
150
root 2.78525 15.2111 0.819742 404.015 -95.0855 -405.352
lowerback 8.90688 0.375909 -10.0159
upperback 6.98259 -0.537705 -3.96355
thorax 2.38386 -0.734433 1.4897
lowerneck -5.23112 4.02412 7.27067
upperneck 16.5595 4.00108 1.79197
head 6.01895 2.37049 -0.370358
rclavicle -1.59028e-015 6.36111e-015
rhumerus -38.9396 -4.35725 -88.3726
rradius 30.1269
rwrist -14.9509
rhand -13.5502 1.3725
rfingers 7.12502
rthumb 12.5628 -28.2298
lclavicle -1.59028e-015 6.36111e-015
lhumerus -19.6329 -11.9676 81.8112
lradius 44.1425
lwrist 7.07837
lhand -22.8632 11.1543
lfingers 7.12502
lthumb 3.57519 41.104
rfemur -33.1694 12.7808 20.9482
rtibia 42.2642
rfoot -24.4376 -21.9192
rtoes -28.7504
lfemur 8.02261 -2.48181 -32.5104
ltibia 22.6371
lfoot -16.8169 10.6055
ltoes -16.4255
